<svg xmlns="http://www.w3.org/2000/svg" width="160" height="160" viewBox="0 0 160 160">
  <rect width="160" height="160" rx="28" fill="#FFF6CC"/>
  <circle cx="80" cy="66" r="34" fill="#F2C7A3"/>
  <path d="M48 62 C50 28 110 24 114 62 C104 42 58 42 48 62 Z" fill="#3B2F2F"/>
  <circle cx="67" cy="68" r="4" fill="#1F2937"/>
  <circle cx="93" cy="68" r="4" fill="#1F2937"/>
  <path d="M70 83 Q80 91 91 83" stroke="#8B3A3A" stroke-width="4" fill="none" stroke-linecap="round"/>
  <path d="M45 154 C48 112 112 112 115 154 Z" fill="#F2C94C"/>
  <circle cx="80" cy="120" r="8" fill="#F2C7A3"/>
  <rect x="75" y="78" width="12" height="28" rx="6" fill="#6B7280"/><path d="M68 94 C68 110 94 110 94 94 M81 110 V120" stroke="#6B7280" fill="none" stroke-width="4"/>
</svg>
